# xmcd
#
# Track frame offsets: 
#        150
#        13185
#        25775
#        37577
#        49225
#        61960
#        73940
#        87440
#        101505
#        111437
#        123542
#        135725
#        148662
#        162820
#
# Disc length: 2311 seconds
#
# Revision: 2
# Processed by: cddbd v1.5.2PL0 Copyright (c) Steve Scherf et al.
# Submitted via: ExactAudioCopy v0.99pb3
#
DISCID=c309050e
DTITLE=Howlin' Wolf - The Real Folk Blues
DYEAR=1966
DGENRE=Blues
TTITLE0=Killing Floor
TTITLE1=Louise
TTITLE2=Poor Boy
TTITLE3=Sittin' On Top Of The World
TTITLE4=Nature
TTITLE5=My Country Sugar Mama
TTITLE6=Tail Dragger
TTITLE7=Three Hundred Pounds Of Joy
TTITLE8=Natchez Burning
TTITLE9=Built For Comfort
TTITLE10=Ooh Baby, Hold Me
TTITLE11=Tell Me What I've Done
TTITLE12=Smokestack Lightning
TTITLE13=Hidden Charms
EXTD=
EXTT0=
EXTT1=
EXTT2=
EXTT3=
EXTT4=
EXTT5=
EXTT6=
EXTT7=
EXTT8=
EXTT9=
EXTT10=
EXTT11=
EXTT12=
EXTT13=
PLAYORDER=
